<svg xmlns="http://www.w3.org/2000/svg" xmlns:xlink="http://www.w3.org/1999/xlink" width="130" height="122">
  <defs>
    <circle id="a" cx="79" cy="84" r="60"/>
    <linearGradient id="b" x1="94.668%" x2="22.848%" y1="94.914%" y2="7.02%">
      <stop offset="0%" stop-color="#F4487D"/>
      <stop offset="100%" stop-color="#FF6E9C"/>
    </linearGradient>
    <circle id="c" cx="79" cy="84" r="60"/>
    <radialGradient id="d" cx="52.101%" cy="30.594%" r="286.27%" fx="52.101%" fy="30.594%" gradientTransform="matrix(-.17045 0 0 -.25522 .61 .384)">
      <stop offset="0%"/>
      <stop offset="100%" stop-opacity=".002"/>
    </radialGradient>
    <filter id="e" width="119.4%" height="214%" x="-9.7%" y="-57%" filterUnits="objectBoundingBox">
      <feGaussianBlur in="SourceGraphic" stdDeviation="2.85"/>
    </filter>
    <linearGradient id="f" x1="33.732%" x2="70.795%" y1="6.033%" y2="100%">
      <stop offset="0%" stop-color="#2E4469"/>
      <stop offset="100%" stop-color="#2E4469" stop-opacity="0"/>
    </linearGradient>
    <linearGradient id="g" x1="14.484%" x2="51.414%" y1="42.878%" y2="63.145%">
      <stop offset="0%" stop-color="#2F4568"/>
      <stop offset="100%" stop-color="#445D7F" stop-opacity="0"/>
    </linearGradient>
    <linearGradient id="h" x1="87.959%" x2="76.976%" y1="52.886%" y2="64.899%">
      <stop offset="0%" stop-color="#2E4469"/>
      <stop offset="100%" stop-color="#2E4469" stop-opacity="0"/>
    </linearGradient>
    <filter id="i" width="105%" height="110.2%" x="-2.5%" y="-5.6%" filterUnits="objectBoundingBox">
      <feGaussianBlur in="SourceGraphic" stdDeviation="1"/>
    </filter>
    <linearGradient id="j" x1="27.131%" x2="84.938%" y1="35.744%" y2="24.815%">
      <stop offset="0%" stop-color="#5B79A2" stop-opacity="0"/>
      <stop offset="100%" stop-color="#2E4469"/>
    </linearGradient>
    <linearGradient id="k" x1="0%" y1="50%" y2="50%">
      <stop offset="0%" stop-color="#5B79A2"/>
      <stop offset="100%" stop-color="#2E4469"/>
    </linearGradient>
    <linearGradient id="l" x1="50%" x2="50%" y1="0%" y2="100%">
      <stop offset="0%" stop-color="#5B79A2"/>
      <stop offset="100%" stop-color="#2E4469"/>
    </linearGradient>
    <filter id="m" width="109.4%" height="114.6%" x="-4.7%" y="-7.3%" filterUnits="objectBoundingBox">
      <feGaussianBlur in="SourceGraphic" stdDeviation="1.047"/>
    </filter>
    <linearGradient id="p" x1="91.619%" x2="39.267%" y1="52.692%" y2="50%">
      <stop offset="0%" stop-color="#F878B2" stop-opacity="0"/>
      <stop offset="100%" stop-color="#EF437A"/>
    </linearGradient>
    <path id="o" d="M64.203 32.133l-13.095 8.35a1.8 1.8 0 0 1-1.513.198l-26.346-8.374a1.8 1.8 0 0 1-.895-.635l-3.733-4.98"/>
    <filter id="n" width="128.8%" height="189.9%" x="-14.4%" y="-46.1%" filterUnits="objectBoundingBox">
      <feMorphology in="SourceAlpha" operator="dilate" radius=".405" result="shadowSpreadOuter1"/>
      <feOffset in="shadowSpreadOuter1" result="shadowOffsetOuter1"/>
      <feMorphology in="SourceAlpha" radius="1" result="shadowInner"/>
      <feOffset in="shadowInner" result="shadowInner"/>
      <feComposite in="shadowOffsetOuter1" in2="shadowInner" operator="out" result="shadowOffsetOuter1"/>
      <feGaussianBlur in="shadowOffsetOuter1" result="shadowBlurOuter1" stdDeviation="2"/>
      <feColorMatrix in="shadowBlurOuter1" values="0 0 0 0 1 0 0 0 0 0.0915967988 0 0 0 0 0.38564639 0 0 0 1 0"/>
    </filter>
    <linearGradient id="q" x1="43.192%" x2="7.635%" y1="53.223%" y2="24.167%">
      <stop offset="0%" stop-color="#56749D"/>
      <stop offset="100%" stop-color="#7093C2"/>
    </linearGradient>
    <filter id="r" width="232%" height="232%" x="-66%" y="-66%" filterUnits="objectBoundingBox">
      <feGaussianBlur in="SourceGraphic" stdDeviation="2.2"/>
    </filter>
    <linearGradient id="s" x1="13.572%" x2="66.67%" y1="81.38%" y2="27.22%">
      <stop offset="0%" stop-color="#F4487D" stop-opacity=".16"/>
      <stop offset="100%" stop-color="#FF6E9C"/>
    </linearGradient>
    <linearGradient id="t" x1="0%" x2="124.706%" y1="50%" y2="50%">
      <stop offset="0%" stop-color="#F44881"/>
      <stop offset="100%" stop-color="#E3356A"/>
    </linearGradient>
    <filter id="u" width="232%" height="232%" x="-66%" y="-66%" filterUnits="objectBoundingBox">
      <feGaussianBlur in="SourceGraphic" stdDeviation="2.2"/>
    </filter>
    <linearGradient id="v" x1="8.633%" x2="60.32%" y1="120.335%" y2="27.22%">
      <stop offset="0%" stop-color="#F4487D" stop-opacity=".16"/>
      <stop offset="100%" stop-color="#FF6E9C"/>
    </linearGradient>
    <linearGradient id="w" x1="33.673%" x2="55.877%" y1="50%" y2="24.815%">
      <stop offset="0%" stop-color="#5B79A2" stop-opacity="0"/>
      <stop offset="100%" stop-color="#2E4469"/>
    </linearGradient>
    <linearGradient id="x" x1="72.199%" x2="7.905%" y1="-23.583%" y2="142.519%">
      <stop offset="0%" stop-color="#56749D"/>
      <stop offset="100%" stop-color="#25395B"/>
    </linearGradient>
    <linearGradient id="y" x1="20.279%" x2="77.708%" y1="17.092%" y2="76.142%">
      <stop offset="0%" stop-color="#5B79A2"/>
      <stop offset="100%" stop-color="#2E4469"/>
    </linearGradient>
    <linearGradient id="z" x1="22.318%" x2="75.808%" y1="12.159%" y2="80.06%">
      <stop offset="0%" stop-color="#395273"/>
      <stop offset="100%" stop-color="#1D2D4A"/>
    </linearGradient>
  </defs>
  <g fill="none" fill-rule="evenodd" transform="translate(-15 -23)">
    <use fill="#000" fill-opacity=".152" xlink:href="#a"/>
    <use stroke="url(#b)" stroke-width="2" xlink:href="#c"/>
    <ellipse cx="79" cy="127.458" fill="url(#d)" filter="url(#e)" opacity=".783" rx="44" ry="7.5" transform="rotate(1 79 127.458)"/>
    <path fill="#1B283E" d="M19.18 60.815l61.866-2.683c3.515-.308 7.771 1.2 9.506 3.37l49.234 46.632c1.735 2.169-1.308 7.132-4.824 7.44L64.94 121.71c-3.515.307-7.771-1.201-9.506-3.37L15.786 68.753c-1.734-2.17-.122-7.63 3.394-7.938z"/>
    <path fill="url(#f)" d="M5.143 12.614C26.046 43.98 38.34 62.774 42.021 68.998c4.459 7.536-2.527 1.52-2.986.832L3.86 16.977c-.31-.696-.48-1.245-.51-1.645-.08-1.073.231-2.3.728-3.228.236-.442.703-1.116 1.034-1.458.503-.52.514.136.031 1.968z" transform="rotate(-5 603.014 -93.712)"/>
    <path fill="url(#g)" d="M8.677 5.608l65.376 1.167c3.53 0 7.638 1.873 9.176 4.185l40.09 51.677c1.538 2.313-.075 4.187-3.604 4.188l-70.29.01c-3.53 0-7.638-1.874-9.177-4.186L5.073 9.795c-1.539-2.312.075-4.187 3.604-4.187z" transform="rotate(-5 643.79 -99.105)"/>
    <path fill="url(#h)" d="M1.391 18.077L40.71 65.391c1.798 2.164 6.223 3.658 9.885 3.337l72.924-6.39c.837-.073 1.65-.39 2.383-.86-.809 1.97-2.785 3.907-4.94 4.096L50.94 71.71c-3.515.307-7.771-1.201-9.506-3.37L1.786 18.753a2.82 2.82 0 0 1-.395-.676z" transform="translate(14 50)"/>
    <path fill="#0E151F" d="M13.227 9.226l-3.196 1.073-4.851.516 38.725 47.263a12 12 0 0 0 10.369 4.346l69.882-6.356-3.852-4.27L68.5 12.307l-55.273-3.08z" filter="url(#i)" opacity=".35" transform="translate(14 50)"/>
    <path fill="#1B283E" d="M23.18 47.815l61.866-2.683c3.515-.308 7.771 1.2 9.506 3.37l49.234 46.632c1.735 2.169-1.308 7.132-4.824 7.44L68.94 108.71c-3.515.307-7.771-1.201-9.506-3.37L19.786 55.753c-1.734-2.17-.122-7.63 3.394-7.938z"/>
    <path fill="url(#j)" d="M27.21 45.342l-1.07 3.88 2.66 3.284 1.356-3.489-2.946-3.675z" transform="translate(18 37)"/>
    <path fill="url(#k)" d="M8.677 5.608c2.352 0 24.145.389 65.376 1.167 3.53 0 7.638 1.873 9.176 4.185l40.09 51.677c1.538 2.313-.075 4.187-3.604 4.188l-70.29.01c-3.53 0-7.638-1.874-9.177-4.186C17.824 28.954 6.098 11.337 5.073 9.795c-1.539-2.312.075-4.187 3.604-4.187z" transform="rotate(-5 496.915 -151.413)"/>
    <path fill="url(#l)" d="M59.835 9.728c.064.057.119.116.163.176l6.873 9.23c.18.24.171.463-.022.583l-7.15 4.46 6.582 8.84c.18.241.172.463-.02.584l-14.926 9.31c-.035.02-.08.034-.123.048-.017.005-.03.014-.048.019-.13.03-.29.03-.466 0-.029-.005-.059-.015-.088-.022-.06-.014-.121-.025-.184-.046L21.64 33.601c-.372-.12-.712-.342-.891-.583L.129 5.328a.749.749 0 0 1-.1-.176c-.007-.02-.004-.038-.01-.057C.01 5.06 0 5.024 0 4.991c0-.022.013-.04.018-.06.006-.027.01-.055.023-.078.011-.02.035-.034.052-.05.018-.02.031-.043.057-.059L7.612.09c.193-.12.54-.12.91 0l14.393 4.654c.052.017.098.038.145.058.043.016.087.032.127.05.05.024.093.052.14.08.035.02.074.037.106.059.052.033.093.069.137.104.024.02.053.037.075.057.063.058.118.117.162.176l12.879 17.295 6.217-3.88-6.583-8.84a.738.738 0 0 1-.099-.175c-.007-.02-.005-.038-.01-.057-.009-.036-.02-.072-.02-.105.002-.022.014-.04.018-.06.007-.026.01-.054.023-.078.012-.02.035-.033.052-.05.019-.02.032-.042.056-.058l7.464-4.655c.192-.12.539-.12.91 0L59.107 9.32c.052.017.097.038.145.057.041.017.085.032.125.05.05.025.094.053.141.08.036.02.074.037.106.06.05.032.092.068.137.104.025.019.052.037.074.057zm-.791 1.34l-2.611 1.63-3.608 2.25 5.716 7.675 6.22-3.88-5.717-7.674zm5.127 21.56l-5.72-7.68-3.56 2.195-10.174 6.266 5.773 7.752 13.68-8.533zm-41.89 0l26.386 8.533-5.771-7.751-13.73-4.382c-.056-.019-.102-.04-.149-.06-.04-.016-.084-.03-.123-.048-.049-.023-.089-.05-.131-.073-.04-.023-.082-.042-.118-.066-.042-.027-.077-.058-.113-.086-.034-.026-.07-.05-.1-.076-.035-.033-.063-.067-.092-.1-.023-.025-.05-.05-.07-.075L14.813 10.372 7.855 8.121 2.819 6.494 22.28 32.628zM2.863 5.328l11.99 3.877 6.216-3.878L9.08 1.451 2.864 5.328zm28.97 20.32l3.608-2.25L22.853 6.493l-2.611 1.629-3.607 2.25 12.588 16.905 2.612-1.63zM45.274 6.026l-6.217 3.878 11.99 3.877 6.216-3.878-11.99-3.877zm5.732 8.921l-6.959-2.25-5.037-1.628 5.716 7.675 6.957 2.25 5.038 1.629-5.715-7.676zm-8.068 17.297l9.153-5.64 4.577-2.818-11.982-3.874-7.152 4.46-6.519 4.066 11.923 3.806z" filter="url(#m)" transform="translate(44 53)"/>
    <path fill="#1B283E" stroke="#1B283E" stroke-width="1.08" d="M103.067 63.162c.06.054.113.11.155.166l6.555 8.693c.171.227.163.437-.021.55l-6.82 4.2 6.279 8.327c.17.227.163.436-.02.55L94.96 94.416c-.033.02-.076.032-.118.046-.016.004-.027.013-.045.017a1.18 1.18 0 0 1-.445 0c-.027-.005-.056-.014-.083-.02-.058-.013-.116-.024-.176-.043L66.64 85.648c-.355-.113-.68-.323-.85-.55l-19.665-26.08a.703.703 0 0 1-.096-.166c-.007-.018-.004-.035-.01-.053-.008-.033-.018-.067-.018-.098 0-.02.012-.038.017-.057.006-.025.01-.051.022-.073.01-.018.033-.032.05-.048.017-.019.03-.04.054-.054l7.117-4.384c.184-.113.514-.113.868 0l13.727 4.384c.049.015.093.035.138.053.04.016.083.03.12.048.049.023.09.05.135.074.033.02.07.036.101.057.049.031.088.065.13.098.023.018.05.035.072.054.06.054.112.11.155.165l12.282 16.29 5.93-3.654-6.279-8.327a.693.693 0 0 1-.094-.165c-.006-.019-.005-.035-.01-.054-.008-.033-.018-.067-.018-.098.001-.02.012-.037.016-.056.007-.026.01-.052.023-.074.011-.018.033-.032.049-.047.018-.02.03-.04.054-.055l7.118-4.384c.184-.113.514-.113.868 0l13.728 4.384c.048.016.091.036.138.054.039.016.081.03.12.047.047.023.088.05.133.075.034.019.07.035.101.056.049.03.088.065.13.098.024.019.051.035.072.054zm-.755 1.263l-2.49 1.534-3.44 2.12 5.45 7.228 5.932-3.653-5.452-7.229zm4.89 20.306l-5.455-7.234-3.397 2.068-9.702 5.901 5.506 7.302 13.048-8.037zm-39.953 0l25.167 8.037-5.505-7.3-13.094-4.128c-.054-.017-.098-.038-.142-.055-.04-.016-.08-.029-.118-.046-.047-.022-.085-.047-.125-.07-.038-.02-.078-.039-.112-.061-.04-.026-.074-.055-.108-.082-.032-.023-.067-.046-.095-.071-.034-.03-.06-.063-.088-.093-.022-.024-.049-.048-.067-.072L60.128 63.77l-6.637-2.121-4.802-1.532 18.56 24.614zM48.732 59.018l11.435 3.652 5.928-3.652-11.436-3.651-5.927 3.651zm27.63 19.139l3.44-2.119-12.006-15.922-2.49 1.534-3.441 2.12 12.006 15.92 2.491-1.534zm12.816-18.481l-5.929 3.652 11.436 3.652 5.927-3.653-11.434-3.651zm5.467 8.402l-6.637-2.119-4.803-1.534 5.45 7.23 6.636 2.118 4.805 1.534-5.451-7.229zM86.95 84.37l8.73-5.312 4.365-2.654-11.428-3.65-6.82 4.202-6.218 3.83L86.95 84.37z"/>
    <g stroke-linecap="round" stroke-linejoin="round" transform="translate(44 53)">
      <use fill="#000" filter="url(#n)" xlink:href="#o"/>
      <use stroke="url(#p)" stroke-width=".81" xlink:href="#o"/>
    </g>
    <path fill="url(#q)" d="M26.754 44.339l65.376 1.166c3.53 0 7.638 1.874 9.177 4.186l-33.805 55.874c-3.53 0-7.638-1.873-9.176-4.186L23.15 48.526c-1.539-2.312.075-4.187 3.604-4.187z" opacity=".376" transform="rotate(-5 61.937 74.952)"/>
    <g transform="translate(0 51)">
      <circle cx="60" cy="29" r="5" fill="#F1476C" filter="url(#r)"/>
      <path stroke="url(#s)" stroke-linejoin="round" stroke-width="2" d="M.776 38.757l3.617 7.972 33.916-18.48-22.8-24.064" transform="scale(-1 1) rotate(-31 22.372 152.112)"/>
      <g transform="scale(-1 1) rotate(-31 17.924 130.367)">
        <circle cx="3.5" cy="3.5" r="3.5" fill="#F1476C"/>
        <path fill="#FFF" fill-opacity=".2" d="M3.333 0a3.33 3.33 0 0 1 2.665 1.33 3.333 3.333 0 0 0-4.667 4.666A3.333 3.333 0 0 1 3.333 0z"/>
      </g>
      <g transform="scale(-1 1) rotate(-31 100.701 126.506)">
        <circle cx="2.5" cy="2.5" r="2.5" fill="#F1476C"/>
        <path fill="#FFF" fill-opacity=".2" d="M2.38 0c.781 0 1.474.375 1.908.956A2.38 2.38 0 0 0 .955 4.29 2.382 2.382 0 0 1 2.381 0z"/>
      </g>
      <g transform="scale(-1 1) rotate(-31 48.642 78.812)">
        <circle cx="4" cy="4" r="4" fill="url(#t)"/>
        <path fill="#FFF" fill-opacity=".2" d="M3.81 0c1.166 0 2.21.525 2.91 1.35l.133.168-.194-.135a3.81 3.81 0 0 0-5.138 5.47A3.81 3.81 0 0 1 3.81 0z"/>
      </g>
    </g>
    <g transform="scale(-1 1) rotate(64 -43.503 -67.924)">
      <circle cx="51" cy="22" r="5" fill="#F1476C" filter="url(#u)"/>
      <path stroke="url(#v)" stroke-linejoin="round" stroke-width="2" d="M.285 40.217l5.108 6.512 24.424-19.17L16.509 4.185" transform="scale(-1 1) rotate(-31 14.751 134.188)"/>
      <g transform="scale(-1 1) rotate(-31 9.804 110.64)">
        <circle cx="3.5" cy="3.5" r="3.5" fill="#F1476C"/>
        <path fill="#FFF" fill-opacity=".2" d="M3.333 0a3.33 3.33 0 0 1 2.665 1.33 3.333 3.333 0 0 0-4.667 4.666A3.333 3.333 0 0 1 3.333 0z"/>
      </g>
      <g transform="scale(-1 1) rotate(-31 92.58 106.78)">
        <circle cx="2.5" cy="2.5" r="2.5" fill="#F1476C"/>
        <path fill="#FFF" fill-opacity=".2" d="M2.38 0c.781 0 1.474.375 1.908.956A2.38 2.38 0 0 0 .955 4.29 2.382 2.382 0 0 1 2.381 0z"/>
      </g>
      <g transform="scale(-1 1) rotate(-31 44.218 76.085)">
        <circle cx="4" cy="4" r="4" fill="url(#t)"/>
        <path fill="#FFF" fill-opacity=".2" d="M3.81 0c1.166 0 2.21.525 2.91 1.35l.133.168-.194-.135a3.81 3.81 0 0 0-5.138 5.47A3.81 3.81 0 0 1 3.81 0z"/>
      </g>
    </g>
    <path fill="url(#w)" d="M54.154 93L53 96.606 55.705 100 57 96.606 54.154 93z"/>
    <path fill="url(#w)" d="M48.154 104L47 107.606 49.705 111 51 107.606 48.154 104z" opacity=".689"/>
    <path stroke="url(#x)" stroke-width="1.5" d="M53 96.373c-12.21-2.769-15.237 11.27-4.062 11.627"/>
    <path fill="#25395B" d="M53.398 95.796c-.542.593-.463.888 0 1.394.308.337.907.438 1.797.303.229-.366.343-.732.343-1.098 0-.367-.114-.733-.343-1.099-.837-.061-1.437.105-1.797.5z"/>
    <path fill="url(#y)" d="M1.332.296c-.584.593-.499 1.691 0 2.197.333.337 1.055.337 2.167 0 .247-.366.37-.732.37-1.098 0-.367-.123-.733-.37-1.099-1.055-.395-1.777-.395-2.167 0z" transform="translate(51 95)"/>
    <g>
      <path fill="#25395B" d="M48.439 107.53c-.325.396-.278.593 0 .93.184.225.544.292 1.078.202.137-.244.206-.488.206-.732s-.069-.488-.206-.733c-.502-.04-.862.07-1.078.334z"/>
      <path fill="url(#z)" d="M.8.197C.448.592.5 1.325.8 1.662c.199.225.632.225 1.3 0 .148-.244.222-.488.222-.732S2.248.442 2.1.197c-.633-.263-1.067-.263-1.3 0z" transform="translate(47 107)"/>
    </g>
  </g>
</svg>
